<svg width="100%" viewBox="0 0 680 200" xmlns="http://www.w3.org/2000/svg">
  

  <!-- Leaf shape -->
  <g transform="translate(222, 100)" style="fill:rgb(0, 0, 0);stroke:none;color:rgb(0, 0, 0);stroke-width:1px;stroke-linecap:butt;stroke-linejoin:miter;opacity:1;font-family:&quot;Anthropic Sans&quot;, -apple-system, BlinkMacSystemFont, &quot;Segoe UI&quot;, sans-serif;font-size:16px;font-weight:400;text-anchor:start;dominant-baseline:auto">
    <path d="M0,-38 C18,-38 38,-20 38,0 C38,20 18,38 0,38 C-18,38 -38,20 -38,0 C-38,-20 -18,-38 0,-38 Z" fill="#4A90A4" opacity="0.15" style="fill:rgb(74, 144, 164);stroke:none;color:rgb(0, 0, 0);stroke-width:1px;stroke-linecap:butt;stroke-linejoin:miter;opacity:0.15;font-family:&quot;Anthropic Sans&quot;, -apple-system, BlinkMacSystemFont, &quot;Segoe UI&quot;, sans-serif;font-size:16px;font-weight:400;text-anchor:start;dominant-baseline:auto"/>
    <path d="M0,-34 C16,-34 34,-18 34,0 C34,18 16,34 0,34 C-16,34 -34,18 -34,0 C-34,-18 -16,-34 0,-34 Z" fill="none" stroke="#4A90A4" stroke-width="1.5" style="fill:none;stroke:rgb(74, 144, 164);color:rgb(0, 0, 0);stroke-width:1.5px;stroke-linecap:butt;stroke-linejoin:miter;opacity:1;font-family:&quot;Anthropic Sans&quot;, -apple-system, BlinkMacSystemFont, &quot;Segoe UI&quot;, sans-serif;font-size:16px;font-weight:400;text-anchor:start;dominant-baseline:auto"/>
    <!-- Brain-like curve inside circle -->
    <path d="M-16,-8 C-16,-20 -4,-24 0,-16 C4,-24 16,-20 16,-8 C16,4 8,14 0,18 C-8,14 -16,4 -16,-8 Z" fill="none" stroke="#4A90A4" stroke-width="1.8" stroke-linecap="round" style="fill:none;stroke:rgb(74, 144, 164);color:rgb(0, 0, 0);stroke-width:1.8px;stroke-linecap:round;stroke-linejoin:miter;opacity:1;font-family:&quot;Anthropic Sans&quot;, -apple-system, BlinkMacSystemFont, &quot;Segoe UI&quot;, sans-serif;font-size:16px;font-weight:400;text-anchor:start;dominant-baseline:auto"/>
    <path d="M0,-16 L0,18" fill="none" stroke="#4A90A4" stroke-width="1.2" stroke-linecap="round" style="fill:none;stroke:rgb(74, 144, 164);color:rgb(0, 0, 0);stroke-width:1.2px;stroke-linecap:round;stroke-linejoin:miter;opacity:1;font-family:&quot;Anthropic Sans&quot;, -apple-system, BlinkMacSystemFont, &quot;Segoe UI&quot;, sans-serif;font-size:16px;font-weight:400;text-anchor:start;dominant-baseline:auto"/>
    <path d="M-10,0 C-6,-4 6,-4 10,0" fill="none" stroke="#4A90A4" stroke-width="1.2" stroke-linecap="round" style="fill:none;stroke:rgb(74, 144, 164);color:rgb(0, 0, 0);stroke-width:1.2px;stroke-linecap:round;stroke-linejoin:miter;opacity:1;font-family:&quot;Anthropic Sans&quot;, -apple-system, BlinkMacSystemFont, &quot;Segoe UI&quot;, sans-serif;font-size:16px;font-weight:400;text-anchor:start;dominant-baseline:auto"/>
  </g>

  <!-- Wordmark -->
  <text x="276" y="112" style="fill:rgb(74, 144, 164);stroke:none;color:rgb(0, 0, 0);stroke-width:1px;stroke-linecap:butt;stroke-linejoin:miter;opacity:1;font-family:Georgia, serif;font-size:38px;font-weight:400;text-anchor:start;dominant-baseline:auto">CalmMind</text>
  <text x="278" y="136" style="fill:rgb(127, 179, 168);stroke:none;color:rgb(0, 0, 0);stroke-width:1px;stroke-linecap:butt;stroke-linejoin:miter;opacity:1;font-family:Arial, sans-serif;font-size:13px;font-weight:400;text-anchor:start;dominant-baseline:auto">THERAPY</text>
</svg>